<svg width="380" height="86" viewBox="0 0 380 86" fill="none" xmlns="http://www.w3.org/2000/svg">
<path d="M133.353 43.0003C133.353 46.2584 132.923 49.4007 132.07 52.4272C131.262 55.3866 130.066 58.2261 128.514 60.8718C126.967 63.4721 125.111 65.8756 122.987 68.0296C120.845 70.1706 118.438 72.0291 115.825 73.5601C113.161 75.1208 110.308 76.3325 107.335 77.1655C104.277 77.9951 101.122 78.409 97.954 78.3959H76.6293V7.60799H97.954C101.212 7.60799 104.338 8.03468 107.335 8.89137C113.271 10.4891 118.674 13.6403 122.987 18.0206C125.127 20.1624 126.984 22.5689 128.514 25.1818C130.062 27.7816 131.246 30.5964 132.07 33.623C132.926 36.6198 133.353 39.7422 133.353 43.0036V43.0003ZM119.183 43.0003C119.202 40.1661 118.631 37.3589 117.506 34.7575C116.453 32.2397 114.909 29.9571 112.964 28.0429C111.031 26.0851 108.733 24.5253 106.2 23.4518C103.598 22.3249 100.79 21.7527 97.954 21.7715H90.8954V64.2291H97.954C100.885 64.2291 103.633 63.6866 106.2 62.5984C111.306 60.4595 115.367 56.3989 117.506 51.2927C118.628 48.673 119.199 45.8502 119.183 43.0003ZM213.035 78.3959H198.911V27.8445C198.911 26.8555 198.716 25.9359 198.323 25.0792C197.972 24.2399 197.451 23.4829 196.791 22.8565C196.164 22.1982 195.407 21.6778 194.568 21.3283C193.694 20.9629 192.754 20.7784 191.806 20.7858C190.871 20.7781 189.944 20.9573 189.079 21.3128C188.214 21.6684 187.428 22.1932 186.769 22.8565C186.12 23.5136 185.608 24.292 185.261 25.1473C184.913 26.0027 184.738 26.918 184.745 27.8411V78.3959H170.578V27.8445C170.578 26.8555 170.396 25.9359 170.035 25.0792C169.685 24.24 169.163 23.483 168.504 22.8565C167.877 22.1983 167.12 21.6778 166.281 21.3283C165.405 20.9625 164.465 20.778 163.516 20.7858C162.581 20.7785 161.654 20.9579 160.79 21.3135C159.925 21.6691 159.141 22.1936 158.481 22.8565C157.833 23.5134 157.32 24.2918 156.973 25.1471C156.625 26.0025 156.45 26.918 156.457 27.8411V78.3959H142.287V27.8445C142.287 24.9138 142.833 22.1651 143.918 19.5984C146.057 14.4922 150.117 10.4316 155.223 8.29268C157.843 7.17029 160.666 6.59944 163.516 6.61568C166.149 6.61568 168.686 7.09199 171.12 8.04791C173.548 8.96466 175.777 10.3391 177.686 12.0965C179.583 10.3472 181.794 8.97341 184.202 8.04791C186.624 7.09567 189.204 6.60974 191.806 6.61568C194.734 6.61568 197.482 7.17799 200.049 8.29268C202.587 9.33714 204.887 10.8829 206.813 12.8375C208.766 14.7629 210.311 17.0624 211.355 19.5984C212.482 22.2005 213.054 25.0089 213.035 27.8445V78.3959ZM262.551 72.2271C261.463 73.2128 260.296 74.1521 259.045 75.0386C257.824 75.897 256.537 76.6569 255.195 77.311C253.846 77.9394 252.446 78.429 250.998 78.7928C249.582 79.1898 248.133 79.3849 246.655 79.3849C243.397 79.3849 240.337 78.8094 237.472 77.6583C234.659 76.5385 232.092 74.8776 229.918 72.7695C227.725 70.5493 225.997 67.9147 224.834 65.0196C223.617 61.9567 223.005 58.5365 223.005 54.7492V25.5225H236.434V54.7492C236.434 56.5288 236.698 58.1231 237.224 59.5388C237.787 60.9214 238.524 62.089 239.447 63.0449C240.367 63.9975 241.438 64.7219 242.656 65.2148C243.906 65.7109 245.236 65.9557 246.655 65.9557C248.037 65.9557 249.334 65.6448 250.554 65.0196C251.805 64.3581 252.89 63.5047 253.812 62.4528C254.732 61.3977 255.456 60.2135 255.986 58.8971C256.512 57.5475 256.773 56.1649 256.773 54.7492V25.5225H270.252V78.3959H266.994L262.551 72.2271ZM309.6 78.3959H278.792V64.9667H309.6C310.52 64.9667 311.31 64.6392 311.968 63.981C312.286 63.6744 312.537 63.3061 312.706 62.8988C312.876 62.4915 312.96 62.0538 312.954 61.6127C312.954 60.6568 312.623 60.0316 311.968 59.7372C311.219 59.4225 310.412 59.2703 309.6 59.2907H295.575C293.319 59.3063 291.084 58.8523 289.013 57.9577C287.024 57.1035 285.215 55.8801 283.681 54.3523C282.16 52.7957 280.937 50.9726 280.076 48.974C279.212 46.8935 278.776 44.6607 278.792 42.4082C278.792 40.0697 279.222 37.8833 280.076 35.8425C280.93 33.8533 282.153 32.0441 283.681 30.5105C285.208 28.9872 287.02 27.779 289.013 26.9547C291.085 26.0595 293.321 25.6055 295.579 25.6217H322.877V39.0509H295.579C294.656 39.0509 293.865 39.3817 293.207 40.0399C292.89 40.3465 292.639 40.7148 292.469 41.1221C292.3 41.5294 292.215 41.9671 292.221 42.4082C292.221 43.3641 292.552 44.1845 293.207 44.8758C293.514 45.194 293.882 45.446 294.29 45.6161C294.698 45.7862 295.137 45.8708 295.579 45.8648H309.6C311.902 45.8648 314.075 46.2617 316.116 47.0489C318.085 47.7623 319.896 48.852 321.448 50.2574C322.96 51.64 324.16 53.3005 325.054 55.2421C325.954 57.2439 326.408 59.4178 326.383 61.6127C326.383 63.9479 325.94 66.1376 325.05 68.1784C324.18 70.1587 322.958 71.9652 321.445 73.5105C319.933 75.0254 318.154 76.2228 316.116 77.1158C314.052 77.975 311.836 78.4103 309.6 78.3959ZM354.621 65.4628C355.15 65.6282 355.676 65.744 356.202 65.8068C356.728 65.8399 357.254 65.8564 357.783 65.8564C359.07 65.8609 360.35 65.6782 361.584 65.314C362.801 64.9501 363.935 64.4441 364.991 63.7858C366.076 63.0912 367.031 62.2709 367.852 61.315C368.708 60.3293 369.4 59.2411 369.926 58.0569L379.799 67.98C378.555 69.75 377.096 71.3588 375.456 72.7695C373.848 74.1813 372.074 75.392 370.174 76.3749C368.285 77.3663 366.278 78.1121 364.2 78.5944C362.102 79.1241 359.947 79.3896 357.783 79.3849C354.174 79.4068 350.598 78.7014 347.268 77.311C344.057 75.9618 341.139 74.0003 338.678 71.5358C336.201 69.0076 334.239 66.023 332.899 62.7472C331.484 59.3238 330.776 55.5728 330.776 51.4911C330.776 47.3102 331.484 43.4931 332.899 40.0366C334.315 36.5834 336.24 33.6362 338.678 31.2018C341.143 28.7662 344.061 26.8368 347.268 25.5225C350.606 24.1636 354.179 23.4758 357.783 23.4981C359.986 23.4981 362.143 23.7628 364.25 24.292C366.357 24.8146 368.348 25.5721 370.223 26.5611C372.143 27.556 373.934 28.7824 375.555 30.2128C377.199 31.6284 378.648 33.2228 379.898 35.0023L354.621 65.4628ZM361.534 37.6683C360.93 37.4431 360.3 37.2942 359.659 37.2251C359.036 37.1574 358.41 37.1243 357.783 37.1258C355.987 37.1158 354.207 37.4679 352.55 38.1611C350.951 38.8099 349.504 39.7855 348.303 41.0256C347.078 42.3414 346.122 43.8842 345.488 45.5671C344.797 47.3102 344.453 49.2849 344.453 51.4911C344.453 51.9873 344.47 52.5463 344.503 53.1715C344.569 53.7966 344.648 54.4383 344.748 55.0965C344.88 55.7217 345.029 56.3303 345.194 56.9224C345.356 57.5178 345.571 58.0404 345.836 58.5035L361.534 37.6683ZM49.8006 44.6773H39.861V13.2145C39.861 12.5993 39.7221 12.0238 39.4442 11.4945C39.19 10.9604 38.8233 10.4877 38.3692 10.1086C37.9158 9.69077 37.384 9.36699 36.8047 9.15599C36.1809 8.92699 35.5209 8.81269 34.8565 8.81861C34.1618 8.81861 33.5135 8.93107 32.9115 9.15599C32.3248 9.3723 31.7832 9.69527 31.3139 10.1086C30.8755 10.4939 30.5199 10.9643 30.2687 11.4912C30.0136 12.0285 29.8835 12.6165 29.8883 13.2112V44.6773H19.9123V13.2145C19.9123 12.5993 19.7866 12.0238 19.5319 11.4945C19.2768 10.9601 18.9089 10.4873 18.4536 10.1086C18.0002 9.69077 17.4684 9.36699 16.8891 9.15599C16.2664 8.92738 15.6075 8.81309 14.9442 8.81861C14.2495 8.81861 13.6012 8.93107 12.9992 9.15599C12.4113 9.37194 11.8685 9.69492 11.3983 10.1086C10.9611 10.4943 10.6066 10.9646 10.3564 11.4912C10.1001 12.0282 9.96895 12.6163 9.97269 13.2112V44.6773H0V13.2145C0 11.3887 0.383692 9.67861 1.14777 8.08099C1.935 6.46022 3.00008 5.06107 4.343 3.8703C5.71238 2.66299 7.29677 1.7203 9.10608 1.04553C10.9717 0.34253 12.9505 -0.0117605 14.9442 0.000297747C16.7965 0.000297747 18.5826 0.29799 20.296 0.893375C22.0094 1.46561 23.5508 2.30576 24.9168 3.41053C26.2842 2.3052 27.8378 1.45278 29.5046 0.893375C31.2258 0.297499 33.035 -0.00441128 34.8565 0.000297747C36.9205 0.000297747 38.8555 0.347605 40.6615 1.04553C42.4906 1.7203 44.0783 2.6663 45.4245 3.8703C46.7906 5.06107 47.8557 6.46353 48.6198 8.08099C49.407 9.67861 49.8006 11.3887 49.8006 13.2145V44.6773ZM25.2476 86.0003C27.5432 86.0003 29.756 85.7357 31.8862 85.2031C33.9496 84.7068 35.9454 83.9627 37.8301 82.987C39.6372 82.0399 41.3278 80.8854 42.8677 79.547C44.3542 78.238 45.663 76.7401 46.7608 75.0915C47.8524 73.4542 48.6958 71.6912 49.2978 69.8058C49.8814 67.915 50.1747 65.9466 50.1678 63.9678V50.694H0.330769V63.9678C0.330769 65.9987 0.628462 67.9436 1.23377 69.8058C1.81262 71.6912 2.64615 73.4542 3.73438 75.0915C4.82592 76.7321 6.13246 78.2173 7.66392 79.547C9.16892 80.88 10.8492 82.0278 12.7015 82.987C14.5829 83.9701 16.5797 84.7146 18.6455 85.2031C20.8047 85.7413 23.0224 86.009 25.2476 86.0003ZM25.2476 77.182C23.2657 77.196 21.2984 76.8416 19.4459 76.1368C17.7048 75.5013 16.0998 74.5417 14.7159 73.3087C13.3652 72.1401 12.2668 70.7085 11.4876 69.1013C10.6971 67.5037 10.3035 65.7936 10.3035 63.9678V59.5751H40.1918V63.9678C40.1918 65.7936 39.8114 67.5037 39.0473 69.1013C38.2568 70.7188 37.195 72.1212 35.8488 73.3087C34.4827 74.5193 32.895 75.4587 31.0857 76.1368C29.2201 76.8398 27.2412 77.1941 25.2476 77.182Z" fill="white"/>
</svg>
