<svg width="124" height="26" fill="#000" xmlns="http://www.w3.org/2000/svg"><path d="M40.316 13c0 .985-.13 1.935-.388 2.85a10.512 10.512 0 0 1-1.075 2.553 11.328 11.328 0 0 1-1.671 2.164 10.748 10.748 0 0 1-2.165 1.672 10.89 10.89 0 0 1-2.567 1.09 10.66 10.66 0 0 1-2.836.372h-6.447V2.3h6.447c.985 0 1.93.129 2.836.388a10.454 10.454 0 0 1 4.732 2.76 10.74 10.74 0 0 1 1.671 2.165c.468.786.826 1.637 1.075 2.552.259.906.388 1.85.388 2.836Zm-4.284 0a6.17 6.17 0 0 0-.507-2.492 6.207 6.207 0 0 0-1.373-2.03 6.362 6.362 0 0 0-2.045-1.388 6.17 6.17 0 0 0-2.493-.508H27.48v12.836h2.134c.886 0 1.717-.164 2.493-.493a6.377 6.377 0 0 0 3.418-3.418A6.275 6.275 0 0 0 36.032 13ZM64.406 23.701h-4.27V8.418c0-.299-.059-.577-.178-.836a1.978 1.978 0 0 0-.463-.672 1.978 1.978 0 0 0-.672-.462 2.123 2.123 0 0 0-.835-.164 2.123 2.123 0 0 0-1.523.626 2.124 2.124 0 0 0-.612 1.507v15.284H51.57V8.418c0-.299-.055-.577-.164-.836a1.98 1.98 0 0 0-.463-.672 1.979 1.979 0 0 0-.672-.462 2.123 2.123 0 0 0-.836-.164 2.123 2.123 0 0 0-1.522.626 2.122 2.122 0 0 0-.612 1.507v15.284h-4.284V8.418c0-.886.165-1.717.493-2.493a6.377 6.377 0 0 1 3.418-3.418A6.275 6.275 0 0 1 49.435 2c.796 0 1.563.144 2.299.433a6.127 6.127 0 0 1 1.985 1.224 6.17 6.17 0 0 1 1.97-1.224A6.244 6.244 0 0 1 57.988 2c.885 0 1.716.17 2.492.507a6.166 6.166 0 0 1 2.045 1.374 6.168 6.168 0 0 1 1.373 2.044 6.17 6.17 0 0 1 .508 2.493v15.284ZM79.376 21.836c-.329.298-.682.582-1.06.85a8.506 8.506 0 0 1-1.164.687c-.408.19-.831.338-1.269.448-.428.12-.866.179-1.313.179-.985 0-1.91-.174-2.776-.522A6.999 6.999 0 0 1 69.51 22a7.106 7.106 0 0 1-1.537-2.343c-.368-.926-.553-1.96-.553-3.105V7.716h4.06v8.836c0 .538.08 1.02.239 1.448.17.418.393.771.672 1.06.278.288.602.507.97.656.378.15.78.224 1.209.224.418 0 .81-.094 1.179-.283.378-.2.706-.458.985-.776.278-.319.497-.677.657-1.075.159-.408.238-.826.238-1.254V7.716h4.075v15.985h-.985l-1.343-1.865ZM93.6 23.701h-9.314v-4.06H93.6c.278 0 .517-.099.716-.298a.977.977 0 0 0 .298-.716c0-.289-.1-.478-.298-.567a1.736 1.736 0 0 0-.716-.135h-4.24a4.918 4.918 0 0 1-1.984-.403 5.18 5.18 0 0 1-1.612-1.09 5.367 5.367 0 0 1-1.09-1.626 5.08 5.08 0 0 1-.388-1.985c0-.707.13-1.368.388-1.985a5.18 5.18 0 0 1 1.09-1.612 4.975 4.975 0 0 1 1.612-1.075 4.917 4.917 0 0 1 1.985-.403h8.253v4.06h-8.253c-.279 0-.518.1-.717.299a.977.977 0 0 0-.298.716c0 .289.1.537.298.746a.977.977 0 0 0 .717.299H93.6c.696 0 1.353.12 1.97.358a4.878 4.878 0 0 1 1.612.97c.457.418.82.92 1.09 1.507a4.57 4.57 0 0 1 .402 1.926c0 .706-.134 1.368-.403 1.985a5.42 5.42 0 0 1-1.09 1.612c-.457.458-.995.82-1.611 1.09a5.042 5.042 0 0 1-1.97.387ZM107.211 19.791c.16.05.319.085.478.104.159.01.318.015.478.015a4.01 4.01 0 0 0 1.149-.164c.368-.11.711-.263 1.03-.462.328-.21.617-.458.865-.747.259-.298.468-.627.627-.985l2.985 3A7.905 7.905 0 0 1 113.51 22a7.967 7.967 0 0 1-1.597 1.09 7.566 7.566 0 0 1-1.806.671 7.854 7.854 0 0 1-1.94.239 8.123 8.123 0 0 1-3.179-.627 8.11 8.11 0 0 1-2.597-1.746 8.27 8.27 0 0 1-1.747-2.657c-.428-1.035-.642-2.169-.642-3.403 0-1.264.214-2.418.642-3.463.428-1.044 1.01-1.935 1.747-2.671a8.027 8.027 0 0 1 2.597-1.717 8.295 8.295 0 0 1 3.179-.612c.666 0 1.318.08 1.955.24.637.158 1.239.387 1.806.686a8.006 8.006 0 0 1 1.612 1.104c.497.428.935.91 1.313 1.448l-7.642 9.209Zm2.09-8.403a2.344 2.344 0 0 0-.567-.134 5.137 5.137 0 0 0-.567-.03 4.04 4.04 0 0 0-1.582.313 3.748 3.748 0 0 0-1.284.866 4.169 4.169 0 0 0-.851 1.373c-.209.527-.313 1.124-.313 1.791 0 .15.005.319.015.508.02.189.044.383.074.582.04.189.085.373.135.552.049.18.114.338.194.478l4.746-6.299ZM15.056 13.507h-3.005V3.995c0-.186-.042-.36-.126-.52a1.24 1.24 0 0 0-.325-.419 1.41 1.41 0 0 0-.473-.288 1.666 1.666 0 0 0-.589-.102c-.21 0-.406.034-.588.102a1.533 1.533 0 0 0-.483.288 1.303 1.303 0 0 0-.316.418 1.19 1.19 0 0 0-.115.52v9.513H6.02V3.995c0-.186-.038-.36-.115-.52a1.24 1.24 0 0 0-.326-.419 1.41 1.41 0 0 0-.473-.288 1.666 1.666 0 0 0-.588-.102c-.21 0-.406.034-.588.102a1.533 1.533 0 0 0-.484.288 1.303 1.303 0 0 0-.315.418 1.19 1.19 0 0 0-.116.52v9.513H0V3.995c0-.552.116-1.069.347-1.552.238-.49.56-.913.966-1.273.414-.365.893-.65 1.44-.854A4.921 4.921 0 0 1 4.518 0c.56 0 1.1.09 1.618.27.518.173.984.427 1.397.761A4.467 4.467 0 0 1 8.92.27 4.907 4.907 0 0 1 10.538 0c.624 0 1.209.105 1.755.316.553.204 1.033.49 1.44.854.413.36.735.784.966 1.273.238.483.357 1 .357 1.552v9.512ZM7.633 26c.694 0 1.363-.08 2.007-.241a7.955 7.955 0 0 0 1.797-.67 7.94 7.94 0 0 0 1.523-1.04 6.864 6.864 0 0 0 1.177-1.347c.33-.495.585-1.028.767-1.598a5.914 5.914 0 0 0 .263-1.765v-4.013H.1v4.013c0 .614.09 1.202.273 1.765.175.57.427 1.103.756 1.598.33.496.725.945 1.188 1.347.455.403.963.75 1.523 1.04a7.714 7.714 0 0 0 1.797.67A8.122 8.122 0 0 0 7.633 26Zm0-2.666a4.836 4.836 0 0 1-1.754-.316 4.435 4.435 0 0 1-1.43-.855 3.975 3.975 0 0 1-.976-1.272c-.239-.483-.358-1-.358-1.552v-1.328h9.036v1.328c0 .552-.115 1.069-.346 1.552-.239.489-.56.913-.967 1.272-.413.366-.893.65-1.44.855a4.92 4.92 0 0 1-1.765.316Z"></path></svg>