<svg width="256" height="256" viewBox="0 0 256 256" fill="none" xmlns="http://www.w3.org/2000/svg">
<g clip-path="url(#clip0_5_7)">
<circle cx="128" cy="128" r="83" fill="black"/>
<path d="M171.058 125.715L110.191 84.2147C109.342 83.6393 108.246 83.5756 107.339 84.0543C106.434 84.5329 105.867 85.4736 105.867 86.5V169.5C105.867 170.526 106.434 171.467 107.341 171.946C107.745 172.162 108.191 172.267 108.633 172.267C109.178 172.267 109.723 172.103 110.191 171.785L171.058 130.285C171.813 129.771 172.267 128.916 172.267 128C172.267 127.084 171.813 126.229 171.058 125.715ZM111.4 164.263V91.7373L164.589 128L111.4 164.263Z" fill="#EAB308"/>
<path d="M128 45C82.2338 45 45 82.2338 45 128C45 173.766 82.2338 211 128 211C173.766 211 211 173.766 211 128C211 82.2338 173.766 45 128 45ZM128 205.467C85.2854 205.467 50.5333 170.715 50.5333 128C50.5333 85.2854 85.2854 50.5333 128 50.5333C170.715 50.5333 205.467 85.2854 205.467 128C205.467 170.715 170.715 205.467 128 205.467Z" fill="#EAB308"/>
</g>
<defs>
<clipPath id="clip0_5_7">
<rect width="166" height="166" fill="white" transform="translate(45 45)"/>
</clipPath>
</defs>
</svg>
