<svg width="256" height="256" viewBox="0 0 256 256" fill="none" xmlns="http://www.w3.org/2000/svg">
<g clip-path="url(#clip0_5_7)">
<path d="M148.751 126.899L119.417 106.899C119.008 106.621 118.48 106.591 118.043 106.821C117.607 107.052 117.333 107.505 117.333 108V148C117.333 148.495 117.607 148.948 118.044 149.179C118.239 149.283 118.453 149.333 118.667 149.333C118.929 149.333 119.192 149.255 119.417 149.101L148.751 129.101C149.115 128.853 149.333 128.441 149.333 128C149.333 127.559 149.115 127.147 148.751 126.899ZM120 145.476V110.524L145.633 128L120 145.476Z" fill="#EAB308"/>
<path d="M128 88C105.944 88 88 105.944 88 128C88 150.056 105.944 168 128 168C150.056 168 168 150.056 168 128C168 105.944 150.056 88 128 88ZM128 165.333C107.415 165.333 90.6667 148.585 90.6667 128C90.6667 107.415 107.415 90.6667 128 90.6667C148.585 90.6667 165.333 107.415 165.333 128C165.333 148.585 148.585 165.333 128 165.333Z" fill="#EAB308"/>
</g>
<defs>
<clipPath id="clip0_5_7">
<rect width="80" height="80" fill="white" transform="translate(88 88)"/>
</clipPath>
</defs>
</svg>
