<svg width="118" height="123" viewBox="0 0 118 123" fill="none" xmlns="http://www.w3.org/2000/svg">
<g clip-path="url(#clip0_3_2)">
<path d="M113.6 74.1C112.83 72.7 111.69 71.63 110.38 70.92L112.26 69.89C114.18 68.83 115.49 67.09 116.06 65.14C116.63 63.18 116.45 61.01 115.4 59.09V59.08C114.62 57.66 113.41 56.51 111.96 55.8L113.47 54.97C115.39 53.91 116.7 52.17 117.27 50.22C117.84 48.26 117.66 46.09 116.61 44.17C115.56 42.25 113.81 40.94 111.86 40.38C109.9 39.81 107.73 39.99 105.81 41.04L104.27 41.89C104.42 40.36 104.12 38.77 103.33 37.32C102.28 35.4 100.53 34.09 98.58 33.52C96.62 32.95 94.45 33.13 92.53 34.18L84.61 38.54C83.76 36.68 82.29 35.09 80.31 34.13H80.3C78.62 33.32 76.74 33.04 74.9 33.33L75.77 31.55C76.87 29.29 76.95 26.79 76.18 24.58C75.42 22.37 73.81 20.45 71.55 19.35C69.29 18.25 66.79 18.17 64.58 18.94C62.37 19.7 60.45 21.31 59.35 23.56L58.47 25.37C57.59 23.84 56.26 22.54 54.56 21.71C52.3 20.61 49.8 20.53 47.59 21.3C45.38 22.06 43.46 23.67 42.36 25.93L23.36 64.92C22.93 65.55 22.54 66.21 22.2 66.9L21.08 69.19L20.97 68.9C20.2 66.89 19.5 64.83 19.23 64.06C17.44 58.85 14.03 56.27 10.58 55.77C9.02 55.54 7.48 55.74 6.07 56.3C4.66 56.86 3.39 57.79 2.37 59.03C-0.0400009 61.96 -1 66.66 1.33 72.35L1.36 72.45L1.37 72.47C3.84 79.74 9.64 101.97 16.02 108.97C23.91 117.63 44.33 125.75 55.32 121.88C61.38 119.75 66.64 115.29 69.68 109.05L70.81 106.73C84.03 99.46 97.24 92.18 110.47 84.9C112.39 83.85 113.7 82.1 114.26 80.15C114.83 78.2 114.66 76.02 113.6 74.1ZM85.43 42.19C88.36 40.59 91.31 38.98 94.26 37.35C95.3 36.78 96.49 36.68 97.56 36.99C98.63 37.3 99.58 38.01 100.15 39.06C100.72 40.1 100.82 41.29 100.51 42.36C100.2 43.43 99.49 44.38 98.44 44.95L89.46 49.89C89.17 49.71 88.88 49.54 88.56 49.39C86.91 48.59 85.13 48.33 83.43 48.55L84.51 46.34C85.16 45 85.45 43.58 85.43 42.19ZM92.22 52.64L107.54 44.21C108.58 43.64 109.77 43.54 110.84 43.85C111.91 44.16 112.86 44.87 113.43 45.92C114 46.96 114.1 48.15 113.79 49.22C113.48 50.29 112.77 51.24 111.72 51.81L92.35 62.46L92.77 61.59C93.87 59.33 93.95 56.83 93.18 54.62C92.95 53.93 92.62 53.26 92.22 52.64ZM89.45 68.42L106.33 59.13C107.37 58.56 108.56 58.46 109.63 58.77C110.7 59.08 111.65 59.79 112.22 60.84C112.79 61.88 112.89 63.07 112.58 64.14C112.27 65.21 111.56 66.16 110.51 66.73L87.73 79.26L89.47 82.43L104.54 74.14C105.58 73.57 106.77 73.47 107.84 73.78C108.91 74.09 109.86 74.8 110.43 75.85C111 76.89 111.1 78.08 110.79 79.15C110.48 80.22 109.77 81.17 108.72 81.74C97 88.19 85.28 94.64 73.56 101.09L89.45 68.42ZM65.95 107.24C63.4 112.47 59.01 116.21 53.94 117.99C44.58 121.29 25.77 113.54 19.07 106.19C13.38 99.95 7.11 76.52 5.29 71.15C5.27 71.06 5.23 70.96 5.2 70.87L3.28 71.66L5.19 70.87C3.49 66.77 4.03 63.55 5.59 61.66C6.16 60.97 6.85 60.46 7.61 60.16C8.37 59.86 9.18 59.75 9.99 59.87C12.03 60.17 14.11 61.88 15.33 65.41C15.61 66.22 16.35 68.37 17.12 70.38C17.84 72.27 18.63 74.13 19.28 75.07C19.48 75.42 19.79 75.7 20.16 75.88H21.99L26.01 68.74C32.68 55 39.36 41.52 46.08 27.73C46.68 26.5 47.73 25.63 48.94 25.21C50.15 24.79 51.51 24.83 52.74 25.43C53.97 26.03 54.84 27.08 55.26 28.28C55.68 29.49 55.64 30.85 55.04 32.08L42.01 58.85L45.87 60.73L63.08 25.37C63.68 24.14 64.73 23.27 65.93 22.85C67.14 22.43 68.5 22.47 69.73 23.07C70.96 23.67 71.83 24.72 72.25 25.93C72.67 27.14 72.63 28.5 72.03 29.73L54.82 65.09L58.76 67.01L71.83 40.16C72.43 38.93 73.48 38.06 74.69 37.64C75.9 37.22 77.26 37.26 78.49 37.86C79.72 38.46 80.59 39.51 81.01 40.72C81.43 41.93 81.39 43.29 80.79 44.52L67.71 71.36L71.44 73.18L80.08 55.42C80.68 54.19 81.72 53.32 82.93 52.9C84.14 52.48 85.5 52.52 86.73 53.12C87.96 53.72 88.83 54.77 89.25 55.98C89.66 57.19 89.63 58.55 89.03 59.78C81.34 75.6 73.65 91.42 65.95 107.24ZM82.16 14.53C82.15 15.89 81.04 16.99 79.68 16.97C78.32 16.96 77.22 15.85 77.24 14.49L77.3 2.57999C77.31 1.21999 78.42 0.119986 79.78 0.139986C81.14 0.149986 82.24 1.25999 82.22 2.61999L82.16 14.53ZM95.14 14.37C94.6 15.62 93.14 16.19 91.89 15.65C90.64 15.11 90.07 13.65 90.61 12.4L95.39 1.48999C95.93 0.239986 97.39 -0.330014 98.64 0.209986C99.89 0.749986 100.46 2.20999 99.92 3.45999L95.14 14.37ZM100 26.05C98.89 26.84 97.35 26.59 96.56 25.48C95.77 24.37 96.02 22.83 97.13 22.04L108.12 14.16C109.23 13.37 110.77 13.62 111.56 14.73C112.35 15.84 112.1 17.38 110.99 18.17L100 26.05Z" fill="white"/>
</g>
<defs>
<clipPath id="clip0_3_2">
<rect width="117.57" height="122.88" fill="white"/>
</clipPath>
</defs>
</svg>
