<svg width="19" height="20" viewBox="0 0 19 20" xmlns="http://www.w3.org/2000/svg">
    <path d="M9.25873 3.36681C6.00134 3.36681 3.36681 6.00134 3.36681 9.25873H5.05022C5.05022 6.93563 6.93563 5.05022 9.25873 5.05022C11.5818 5.05022 13.4672 6.93563 13.4672 9.25873H15.1507C15.1507 6.00134 12.5161 3.36681 9.25873 3.36681ZM9.25873 0C4.1496 0 0 4.1496 0 9.25873H1.68341C1.68341 5.07547 5.07547 1.68341 9.25873 1.68341C13.442 1.68341 16.8341 5.07547 16.8341 9.25873H18.5175C18.5175 4.1496 14.3679 0 9.25873 0Z" fill="white" />
    <path d="M10.1004 11.1862C10.8411 10.858 11.363 10.1257 11.363 9.25873C11.363 8.09718 10.4203 7.15448 9.25873 7.15448C8.09718 7.15448 7.15448 8.09718 7.15448 9.25873C7.15448 10.1173 7.67633 10.858 8.41703 11.1862V18.4681H5.05022V20H13.4672V18.4681H10.1004V11.1862Z" fill="white" />
</svg>