<svg width="15" height="15" viewBox="0 0 15 15" fill="none" xmlns="http://www.w3.org/2000/svg">
  <g clip-path="url(#clip0_106_915)">
    <path d="M7.495 14.99C11.6485 14.99 14.99 11.6485 14.99 7.495C14.99 3.3415 11.6485 0 7.495 0C3.3415 0 0 3.3415 0 7.495C0 11.6485 3.3415 14.99 7.495 14.99Z" fill="white" />
    <path d="M9.55627 8.68158C9.55627 7.58858 8.90045 7.21383 7.58883 7.05771C6.65195 6.93277 6.46458 6.68296 6.46458 6.2457C6.46458 5.80844 6.77689 5.52745 7.40145 5.52745C7.96358 5.52745 8.27589 5.71483 8.43202 6.18326C8.46327 6.27695 8.55696 6.33939 8.65064 6.33939H9.15026C9.2752 6.33939 9.36889 6.2457 9.36889 6.12083V6.08958C9.24395 5.40251 8.68182 4.87163 7.96358 4.8092V4.0597C7.96358 3.93476 7.86989 3.84107 7.71377 3.80981H7.24533C7.12039 3.80981 7.0267 3.9035 6.99545 4.0597V4.77795C6.05857 4.90289 5.46527 5.52745 5.46527 6.30821C5.46527 7.33877 6.08983 7.7447 7.40145 7.9009C8.27589 8.05702 8.55696 8.2444 8.55696 8.74409C8.55696 9.24378 8.1197 9.58728 7.52639 9.58728C6.71439 9.58728 6.43332 9.24371 6.33964 8.77527C6.30846 8.6504 6.21477 8.58789 6.12108 8.58789H5.59014C5.46527 8.58789 5.37158 8.68158 5.37158 8.80652V8.83778C5.49645 9.61846 5.99614 10.1806 7.0267 10.3368V11.0863C7.0267 11.2112 7.12039 11.3048 7.27651 11.3361H7.74495C7.86989 11.3361 7.96358 11.2424 7.99483 11.0863V10.3368C8.93171 10.1806 9.55627 9.52477 9.55627 8.68158V8.68158Z" fill="black" />
    <path d="M5.90222 11.9608C3.46634 11.0864 2.21714 8.36946 3.12284 5.96474C3.59128 4.65311 4.62185 3.65379 5.90222 3.18535C6.02717 3.12292 6.0896 3.02923 6.0896 2.87303V2.43585C6.0896 2.3109 6.02717 2.21721 5.90222 2.18604C5.87097 2.18604 5.80854 2.18603 5.77728 2.21721C2.81052 3.1541 1.18658 6.30832 2.12346 9.27508C2.68558 11.0239 4.02847 12.3668 5.77728 12.9289C5.90222 12.9914 6.02717 12.9289 6.05834 12.804C6.0896 12.7728 6.0896 12.7415 6.0896 12.6791V12.2419C6.0896 12.1482 5.99591 12.0233 5.90222 11.9608ZM9.21255 2.21721C9.08761 2.15478 8.96267 2.21721 8.93149 2.34216C8.90023 2.37341 8.90023 2.40459 8.90023 2.4671V2.90429C8.90023 3.02923 8.99392 3.1541 9.08761 3.21661C11.5235 4.09098 12.7727 6.80794 11.867 9.21265C11.3986 10.5243 10.368 11.5236 9.08761 11.992C8.96267 12.0545 8.90023 12.1482 8.90023 12.3044V12.7415C8.90023 12.8665 8.96267 12.9602 9.08761 12.9914C9.11886 12.9914 9.1813 12.9914 9.21255 12.9602C12.1793 12.0233 13.8033 8.86908 12.8664 5.90231C12.3043 4.12223 10.9301 2.77934 9.21255 2.21721V2.21721Z" fill="black" />
  </g>
  <defs>
    <clipPath id="clip0_106_915">
      <rect width="14.99" height="14.99" fill="white" />
    </clipPath>
  </defs>
</svg>